<svg width="375" height="101" viewBox="0 0 375 101" fill="none" xmlns="http://www.w3.org/2000/svg">
<path d="M93.3574 48.1195C96.6276 48.3895 107.008 46.8797 108.758 48.9897L122.233 99.9682C119.769 99.4604 111.816 100.769 110.377 99.849C109.347 99.1869 108.787 90.6293 108.147 90.0893C107.217 89.2993 96.2675 90.4891 93.8574 89.9291C92.4474 90.3091 92.2774 99.1098 91.1074 99.8598C89.7273 100.75 82.5673 99.4997 80.2373 99.9897C81.6473 82.1497 88.1674 65.1095 93.3574 48.1195ZM122.237 99.9692V99.9799L122.233 99.9682C122.235 99.9684 122.236 99.9689 122.237 99.9692ZM101.718 63.9994C101.378 63.0395 101.607 61.7098 100.258 61.9994L95.2471 79.9799H106.237C104.497 74.7699 103.548 69.1694 101.718 63.9994Z" fill="#F05224"/>
<path d="M35.2574 64.9897C33.3474 64.6597 23.6574 65.4297 23.2474 64.9897C22.7574 64.4697 24.7174 58.4297 20.5574 57.1897C14.5874 55.4097 11.6174 58.2997 13.4574 64.2897C15.1674 69.8797 34.4674 69.3697 36.1774 83.5697C38.9574 106.6 -3.68261 105.73 0.257387 81.9697C2.16739 82.2997 11.8574 81.5297 12.2674 81.9697C12.4774 82.1897 11.9374 86.0097 12.7874 87.9597C14.9074 92.8497 23.6774 91.6797 24.2774 86.4397C25.2274 78.1397 5.09738 77.8697 2.06738 68.6997C-7.09262 41.0097 38.7174 40.1097 35.2774 64.9897H35.2574Z" fill="#F05224"/>
<path d="M272.217 82.4797C271.567 79.2797 264.847 68.9997 263.037 64.6697C260.777 59.2497 259.567 53.3897 257.217 47.9997C259.787 48.5297 268.627 47.1697 270.087 48.1197C271.067 48.7597 276.077 67.2897 278.227 69.9797C280.737 71.8997 286.407 48.8697 287.317 48.0897C287.707 47.7497 296.367 47.7797 297.747 47.9797C299.237 48.1997 299.347 47.3897 299.237 49.4897C299.017 53.8197 294.297 64.1697 292.387 68.6497C290.807 72.3697 286.177 78.6897 285.487 81.7397C284.577 85.7297 286.187 97.0097 284.787 99.0297C283.387 101.05 274.947 99.5197 272.227 99.9697C271.507 94.8197 273.207 87.2597 272.227 82.4797H272.217Z" fill="#F05224"/>
<path d="M137.237 82.4797C136.617 80.1097 129.767 69.6397 128.057 65.6697C126.477 61.9997 122.707 52.9596 122.257 49.4596C121.997 47.4296 122.327 48.1797 123.717 47.9897C125.887 47.6897 133.537 47.5097 134.757 48.9797C137.827 52.6897 138.457 66.3797 144.227 69.9897C145.547 67.1397 151.237 49.0997 152.177 48.4397C154.077 47.0797 161.477 48.4997 164.237 48.0097C162.417 54.6897 160.177 61.3197 157.417 67.6697C156.217 70.4297 149.247 81.6497 149.247 82.4897V99.9797H137.247C136.427 95.1897 138.367 86.7097 137.247 82.4897L137.237 82.4797Z" fill="#F05224"/>
<path d="M78.2473 47.9897L78.2573 57.9897H66.2473V98.9797H54.2573V57.9897H42.2473L42.2573 47.9897H78.2473Z" fill="#F05224"/>
<path d="M218.228 47.9896C225.047 48.5796 233.068 47.1797 239.728 47.9896C251.377 49.4097 255.037 59.4096 252.777 70.0395C251.897 74.1594 247.277 77.8496 247.237 79.4496C247.187 81.7992 256.064 98.3338 255.218 98.9594C252.978 98.5394 243.217 99.62 242.337 98.85C241.457 98.079 236.847 81.6795 236.127 81.0795C235.406 80.48 231.628 81.2497 230.228 80.9799V98.9701H218.228V47.9896ZM241.268 62.4398C240.418 56.0801 235.148 58.2697 230.218 57.9799V70.9896C237.967 71.4096 242.528 71.8096 241.268 62.4398Z" fill="#F05224"/>
<path d="M173.228 47.9898C179.727 48.5697 187.398 47.2098 193.728 47.9898C199.897 48.7498 205.597 51.91 207.717 57.9898C210.377 65.6097 210.527 88.4594 204.917 94.6695C204.167 95.4994 197.499 98.9695 196.728 98.9702H173.228V47.9898ZM197.237 81.48C198.437 70.74 199.587 54.5298 184.237 57.9898V88.98C192.097 89.07 196.207 90.6996 197.237 81.48Z" fill="#F05224"/>
<path d="M210.217 12.9997C212.247 16.4297 201.737 24.5697 200.227 27.9797C206.847 26.3997 219.147 39.7197 215.217 44.9797C210.537 44.0797 209.457 37.0697 206.927 35.2897C205.147 34.0497 196.737 31.9897 195.377 34.1297C193.797 38.9197 198.717 46.0197 192.247 46.9697C189.757 36.5797 189.407 25.5397 187.237 14.9897C191.557 17.5697 189.307 12.5297 191.727 14.9897L195.217 26.9697C197.777 22.3897 201.857 18.4497 205.247 14.4697C206.047 13.5297 206.127 12.0597 206.247 11.9897C206.747 11.6597 207.487 13.0797 208.227 13.2997C209.297 13.6097 210.167 12.9097 210.217 12.9997Z" fill="#00739A"/>
<path d="M275.207 8.98971C275.177 9.13971 271.847 8.36972 274.207 11.9997C270.157 10.0297 262.817 7.73971 261.217 13.4897C262.037 17.4097 273.677 11.5497 278.187 15.5297C282.337 19.1997 280.917 28.8897 275.817 31.0997C270.167 33.5497 259.557 31.9697 258.217 25.0097C259.617 23.9697 272.177 30.0497 275.287 25.3297C278.397 20.6097 273.217 21.6697 275.227 19.0097C271.447 18.4197 267.417 20.7697 263.877 20.6397C252.227 20.2097 254.507 4.11967 265.547 4.32967C267.167 4.35967 275.627 7.06972 275.207 8.99972V8.98971Z" fill="#00739A"/>
<path d="M249.208 0C253.617 10.0898 252.317 21.6096 253.907 32.3193C252.457 36.4993 241.518 36.6095 237.718 33.9795C224.348 24.7095 229.588 9.29 246.208 12L246.218 12.0098L242.227 13.0098C241.897 14.6594 247.045 14.1801 247.227 14C248.297 12.91 243.998 1.52 249.208 0ZM248.214 15.0107C241.413 17.4394 230.559 17.2716 237.787 26.9395C240.197 30.1694 246.027 32.5598 248.807 29.0498C249.247 28.5007 247.334 17.3348 248.214 15.0107ZM248.214 15.0107C248.215 15.0103 248.216 15.0102 248.218 15.0098V15C248.216 15.0035 248.215 15.0072 248.214 15.0107Z" fill="#00739A"/>
<path d="M220.768 13.2203C223.167 13.6219 222.227 27.5704 222.167 30.5602C222.137 32.1999 223.058 33.6897 223.068 34.5397C223.068 34.8697 220.768 38.5096 218.228 34.9996L218.227 34.9977L218.938 30.7897L217.238 22.0094L218.226 34.9977C216.817 33.059 216.438 31.9187 216.228 29.4996C216.038 27.3291 216.687 16.3797 217.167 14.6198C217.328 14.0398 220.518 13.1803 220.768 13.2203Z" fill="#00739A"/>
<path d="M325.448 62.7195C327.998 47.9097 346.708 43.5094 357.778 53.4392H357.787C360.397 55.7792 362.387 59.1596 362.967 62.7195C363.647 66.8295 362.058 72.3599 362.438 74.3699C362.728 75.8599 366.508 78.2902 367.657 80.03C370.787 84.7801 371.247 92.1201 367.217 96.49C363.217 100.839 363.017 92.4696 359.847 93.0496C359.195 93.1715 354.187 97.7798 351.497 98.7595C346.217 100.67 341.357 100.529 336.217 98.4695C333.407 97.3393 329.058 92.5396 326.738 92.9392C322.788 104.409 317.377 91.9793 318.247 85.5593C319.007 79.99 325.576 76.3902 325.967 74.3601C326.357 72.3301 324.738 66.8595 325.448 62.7195ZM352.207 94.9695C351.307 90.5096 337.327 91.9 336.207 92.99C334.638 94.5195 336.577 94.7097 337.597 95.0896C342.307 96.8496 347.447 95.8995 352.207 94.9695ZM328.728 77.99C323.748 79.35 321.458 86.2495 322.228 90.9695C322.828 91.6594 325.337 89.9403 325.698 89.0203C326.278 87.5503 323.708 84.4697 326.728 84.9597C330.637 85.5999 330.707 90.8681 331.807 91.0496C333.317 91.2996 339.988 87.8199 344.728 87.9099C348.928 87.9902 355.037 91.2903 356.577 91.0603C357.327 90.9503 359.867 84.7098 361.707 83.9998C364.507 86.4298 360.658 90.7695 366.198 90.9695H366.217C367.277 87.6293 364.977 78.9402 360.717 78.9402C359.766 78.9512 353.847 84.1296 350.927 85.1795C344.697 87.4194 338.337 86.6203 332.887 82.8103C330.808 81.3509 329.039 77.9131 328.728 77.99ZM339.207 61.99C333.717 61.43 335.427 61.89 334.207 63.99C331.047 69.4199 327.927 73.1298 333.307 78.3797C338.467 83.4295 347.687 84.14 353.557 79.8504C360.507 74.7704 357.357 70.2999 354.198 63.99C354.038 63.67 354.547 62.4797 354.097 62.1297C353.307 61.5301 350.487 62.1998 349.198 61.99C348.488 68.26 355.007 75.6196 344.727 76.0896C330.618 76.7294 341.677 64.3802 339.207 61.99ZM346.207 72.9793C347.887 71.3091 343.937 66.3502 341.238 71.49C341.708 72.9798 345.647 73.5392 346.207 72.9793ZM357.198 59.99C352.508 48.3702 335.358 49.5497 330.198 60.4793C331.448 61.2692 332.407 58.65 333.907 58.2C336.747 57.35 339.838 57.6198 341.698 59.9998C342.427 60.9304 343.378 66.9597 345.198 64.99C345.348 64.83 345.477 62.0799 346.327 60.6199C348.707 56.5299 353.958 57.28 357.198 59.99Z" fill="#F05224"/>
<path d="M354.207 63.9897C355.387 67.0197 348.577 68.8897 350.217 64.4997C350.927 62.6097 353.777 62.8797 354.207 63.9897Z" fill="#F05224"/>
<path d="M334.146 63.8579C332.966 66.8879 339.776 68.7579 338.136 64.3679C337.426 62.4779 334.576 62.7479 334.146 63.8579Z" fill="#F05224"/>
<path d="M366.277 50.707V50.0098H369.413V50.707H368.244V54.0098H367.446V50.707H366.277Z" fill="#F05224"/>
<path d="M370.139 50.0098H371.134L372.186 52.6973H372.231L373.282 50.0098H374.277V54.0098H373.494V51.4063H373.463L372.475 53.9902H371.942L370.954 51.3965H370.922V54.0098H370.139V50.0098Z" fill="#F05224"/>
</svg>
